# xmcd
#
# Track frame offsets:
#	150
#	12855
#	27644
#	47140
#	61734
#	79311
#	90950
#	110316
#	132232
#	144309
#
# Disc length: 2157 seconds
#
# Revision: 0
# Processed by: cddbd v1.5.2PL0 Copyright (c) Steve Scherf et al.
# Submitted via: audiograbber 1.83.01
#
DISCID=79086b0a
DTITLE=Le*jit - Lejitimate
DYEAR=2007
DGENRE=Urban
TTITLE0=Hold Tight
TTITLE1=Number 1
TTITLE2=Body Move
TTITLE3=Cause Of You
TTITLE4=Rise Up
TTITLE5=Sweet Love
TTITLE6=Only One
TTITLE7=Alone
TTITLE8=Special
TTITLE9=Lullaby
EXTD=
EXTT0=
EXTT1=
EXTT2=
EXTT3=
EXTT4=
EXTT5=
EXTT6=
EXTT7=
EXTT8=
EXTT9=
PLAYORDER=
